<mxfile host="Electron" modified="2024-02-05T12:47:18.970Z" agent="Mozilla/5.0 (Windows NT 10.0; Win64; x64) AppleWebKit/537.36 (KHTML, like Gecko) draw.io/23.0.2 Chrome/120.0.6099.109 Electron/28.1.0 Safari/537.36" etag="fieAA5lE7JWkFuug1Soe" version="23.0.2" type="device">
  <diagram id="C5RBs43oDa-KdzZeNtuy" name="Page-1">
    <mxGraphModel dx="1400" dy="828" grid="0" gridSize="10" guides="1" tooltips="1" connect="1" arrows="1" fold="1" page="1" pageScale="1" pageWidth="827" pageHeight="1169" math="0" shadow="0">
      <root>
        <mxCell id="WIyWlLk6GJQsqaUBKTNV-0" />
        <mxCell id="WIyWlLk6GJQsqaUBKTNV-1" parent="WIyWlLk6GJQsqaUBKTNV-0" />
        <mxCell id="BNZY-GQQ6ccpOPCzlgzK-45" value="HMI" style="rounded=0;whiteSpace=wrap;html=1;verticalAlign=top;" parent="WIyWlLk6GJQsqaUBKTNV-1" vertex="1">
          <mxGeometry x="55" y="269" width="720" height="97" as="geometry" />
        </mxCell>
        <mxCell id="BNZY-GQQ6ccpOPCzlgzK-44" value="Power" style="rounded=0;whiteSpace=wrap;html=1;verticalAlign=top;" parent="WIyWlLk6GJQsqaUBKTNV-1" vertex="1">
          <mxGeometry x="55" y="440" width="150" height="96" as="geometry" />
        </mxCell>
        <mxCell id="BNZY-GQQ6ccpOPCzlgzK-42" value="Sensors" style="rounded=0;whiteSpace=wrap;html=1;verticalAlign=bottom;" parent="WIyWlLk6GJQsqaUBKTNV-1" vertex="1">
          <mxGeometry x="126.5" y="865" width="577" height="101" as="geometry" />
        </mxCell>
        <mxCell id="BNZY-GQQ6ccpOPCzlgzK-40" value="Actuators" style="rounded=0;whiteSpace=wrap;html=1;verticalAlign=top;" parent="WIyWlLk6GJQsqaUBKTNV-1" vertex="1">
          <mxGeometry x="625" y="440" width="150" height="261" as="geometry" />
        </mxCell>
        <mxCell id="BNZY-GQQ6ccpOPCzlgzK-2" value="GPIO/1 wire" style="edgeStyle=orthogonalEdgeStyle;rounded=0;orthogonalLoop=1;jettySize=auto;html=1;entryX=0.5;entryY=1;entryDx=0;entryDy=0;" parent="WIyWlLk6GJQsqaUBKTNV-1" source="BNZY-GQQ6ccpOPCzlgzK-0" target="BNZY-GQQ6ccpOPCzlgzK-1" edge="1">
          <mxGeometry x="0.8228" relative="1" as="geometry">
            <Array as="points">
              <mxPoint x="415" y="420" />
              <mxPoint x="696" y="420" />
            </Array>
            <mxPoint as="offset" />
            <mxPoint x="485" y="425" as="targetPoint" />
          </mxGeometry>
        </mxCell>
        <mxCell id="BNZY-GQQ6ccpOPCzlgzK-19" value="1 wire" style="edgeStyle=orthogonalEdgeStyle;rounded=0;orthogonalLoop=1;jettySize=auto;html=1;entryX=0;entryY=0.5;entryDx=0;entryDy=0;exitX=1;exitY=0.5;exitDx=0;exitDy=0;" parent="WIyWlLk6GJQsqaUBKTNV-1" source="BNZY-GQQ6ccpOPCzlgzK-0" target="BNZY-GQQ6ccpOPCzlgzK-18" edge="1">
          <mxGeometry x="0.4815" relative="1" as="geometry">
            <Array as="points">
              <mxPoint x="521" y="605" />
              <mxPoint x="521" y="497" />
            </Array>
            <mxPoint as="offset" />
            <mxPoint x="585" y="515" as="targetPoint" />
          </mxGeometry>
        </mxCell>
        <mxCell id="sVcyXuBf6ooVwLhxNdBt-4" style="edgeStyle=orthogonalEdgeStyle;rounded=0;orthogonalLoop=1;jettySize=auto;html=1;exitX=1;exitY=0.5;exitDx=0;exitDy=0;entryX=0;entryY=0.5;entryDx=0;entryDy=0;" parent="WIyWlLk6GJQsqaUBKTNV-1" source="BNZY-GQQ6ccpOPCzlgzK-0" target="sVcyXuBf6ooVwLhxNdBt-2" edge="1">
          <mxGeometry relative="1" as="geometry">
            <Array as="points">
              <mxPoint x="521" y="605" />
              <mxPoint x="521" y="578" />
            </Array>
          </mxGeometry>
        </mxCell>
        <mxCell id="sVcyXuBf6ooVwLhxNdBt-5" value="Dedicated periph." style="edgeLabel;html=1;align=center;verticalAlign=middle;resizable=0;points=[];" parent="sVcyXuBf6ooVwLhxNdBt-4" vertex="1" connectable="0">
          <mxGeometry x="-0.1207" relative="1" as="geometry">
            <mxPoint x="34" as="offset" />
          </mxGeometry>
        </mxCell>
        <mxCell id="BNZY-GQQ6ccpOPCzlgzK-0" value="Board" style="rounded=1;whiteSpace=wrap;html=1;fillColor=#d5e8d4;strokeColor=#82b366;" parent="WIyWlLk6GJQsqaUBKTNV-1" vertex="1">
          <mxGeometry x="335" y="545" width="160" height="120" as="geometry" />
        </mxCell>
        <mxCell id="BNZY-GQQ6ccpOPCzlgzK-1" value="Status leds" style="whiteSpace=wrap;html=1;rounded=1;fillColor=#e1d5e7;strokeColor=#9673a6;" parent="WIyWlLk6GJQsqaUBKTNV-1" vertex="1">
          <mxGeometry x="636" y="292" width="120" height="60" as="geometry" />
        </mxCell>
        <mxCell id="VwEL4zslP9OhHKFk7XXc-13" style="edgeStyle=orthogonalEdgeStyle;rounded=0;orthogonalLoop=1;jettySize=auto;html=1;exitX=0.5;exitY=0;exitDx=0;exitDy=0;entryX=0.5;entryY=1;entryDx=0;entryDy=0;" parent="WIyWlLk6GJQsqaUBKTNV-1" source="BNZY-GQQ6ccpOPCzlgzK-6" target="BNZY-GQQ6ccpOPCzlgzK-0" edge="1">
          <mxGeometry relative="1" as="geometry">
            <Array as="points">
              <mxPoint x="486" y="835" />
              <mxPoint x="415" y="835" />
            </Array>
          </mxGeometry>
        </mxCell>
        <mxCell id="sVcyXuBf6ooVwLhxNdBt-35" value="ADC" style="edgeLabel;html=1;align=center;verticalAlign=middle;resizable=0;points=[];" parent="VwEL4zslP9OhHKFk7XXc-13" vertex="1" connectable="0">
          <mxGeometry x="-0.7901" relative="1" as="geometry">
            <mxPoint y="-4" as="offset" />
          </mxGeometry>
        </mxCell>
        <mxCell id="BNZY-GQQ6ccpOPCzlgzK-6" value="NTC" style="whiteSpace=wrap;html=1;rounded=1;fillColor=#ffe6cc;strokeColor=#d79b00;" parent="WIyWlLk6GJQsqaUBKTNV-1" vertex="1">
          <mxGeometry x="425.5" y="882" width="120" height="60" as="geometry" />
        </mxCell>
        <mxCell id="BNZY-GQQ6ccpOPCzlgzK-18" value="Addressable leds" style="whiteSpace=wrap;html=1;rounded=1;fillColor=#fff2cc;strokeColor=#d6b656;" parent="WIyWlLk6GJQsqaUBKTNV-1" vertex="1">
          <mxGeometry x="644" y="467" width="120" height="60" as="geometry" />
        </mxCell>
        <mxCell id="VwEL4zslP9OhHKFk7XXc-16" style="edgeStyle=orthogonalEdgeStyle;rounded=0;orthogonalLoop=1;jettySize=auto;html=1;exitX=0.5;exitY=1;exitDx=0;exitDy=0;entryX=0.5;entryY=0;entryDx=0;entryDy=0;startArrow=none;startFill=0;" parent="WIyWlLk6GJQsqaUBKTNV-1" source="BNZY-GQQ6ccpOPCzlgzK-24" target="BNZY-GQQ6ccpOPCzlgzK-0" edge="1">
          <mxGeometry relative="1" as="geometry">
            <Array as="points">
              <mxPoint x="127" y="420" />
              <mxPoint x="415" y="420" />
            </Array>
          </mxGeometry>
        </mxCell>
        <mxCell id="VwEL4zslP9OhHKFk7XXc-17" value="GPIO" style="edgeLabel;html=1;align=center;verticalAlign=middle;resizable=0;points=[];" parent="VwEL4zslP9OhHKFk7XXc-16" vertex="1" connectable="0">
          <mxGeometry x="-0.64" y="-2" relative="1" as="geometry">
            <mxPoint x="-16" y="-30" as="offset" />
          </mxGeometry>
        </mxCell>
        <mxCell id="BNZY-GQQ6ccpOPCzlgzK-24" value="Button" style="whiteSpace=wrap;html=1;rounded=1;fillColor=#e1d5e7;strokeColor=#9673a6;" parent="WIyWlLk6GJQsqaUBKTNV-1" vertex="1">
          <mxGeometry x="67" y="292" width="120" height="60" as="geometry" />
        </mxCell>
        <mxCell id="kOA28rT-aEDT9Uid_dWa-2" style="edgeStyle=orthogonalEdgeStyle;rounded=0;orthogonalLoop=1;jettySize=auto;html=1;exitX=1;exitY=0.5;exitDx=0;exitDy=0;entryX=0;entryY=0.25;entryDx=0;entryDy=0;" parent="WIyWlLk6GJQsqaUBKTNV-1" source="BNZY-GQQ6ccpOPCzlgzK-30" target="BNZY-GQQ6ccpOPCzlgzK-0" edge="1">
          <mxGeometry relative="1" as="geometry" />
        </mxCell>
        <mxCell id="kOA28rT-aEDT9Uid_dWa-3" value="5V/12V" style="edgeLabel;html=1;align=center;verticalAlign=middle;resizable=0;points=[];" parent="kOA28rT-aEDT9Uid_dWa-2" vertex="1" connectable="0">
          <mxGeometry x="-0.008" relative="1" as="geometry">
            <mxPoint as="offset" />
          </mxGeometry>
        </mxCell>
        <mxCell id="BNZY-GQQ6ccpOPCzlgzK-30" value="Motor power" style="whiteSpace=wrap;html=1;rounded=1;fillColor=#E7EBBE;strokeColor=#36393d;" parent="WIyWlLk6GJQsqaUBKTNV-1" vertex="1">
          <mxGeometry x="68" y="465" width="120" height="60" as="geometry" />
        </mxCell>
        <mxCell id="sVcyXuBf6ooVwLhxNdBt-2" value="Motordriver" style="whiteSpace=wrap;html=1;rounded=1;fillColor=#fff2cc;strokeColor=#d6b656;" parent="WIyWlLk6GJQsqaUBKTNV-1" vertex="1">
          <mxGeometry x="644" y="548" width="120" height="60" as="geometry" />
        </mxCell>
        <mxCell id="sVcyXuBf6ooVwLhxNdBt-8" style="edgeStyle=orthogonalEdgeStyle;rounded=0;orthogonalLoop=1;jettySize=auto;html=1;exitX=0.5;exitY=1;exitDx=0;exitDy=0;entryX=0.5;entryY=0;entryDx=0;entryDy=0;startArrow=classic;startFill=1;" parent="WIyWlLk6GJQsqaUBKTNV-1" source="sVcyXuBf6ooVwLhxNdBt-7" target="BNZY-GQQ6ccpOPCzlgzK-0" edge="1">
          <mxGeometry relative="1" as="geometry">
            <Array as="points">
              <mxPoint x="555" y="420" />
              <mxPoint x="415" y="420" />
            </Array>
          </mxGeometry>
        </mxCell>
        <mxCell id="sVcyXuBf6ooVwLhxNdBt-9" value="I2C" style="edgeLabel;html=1;align=center;verticalAlign=middle;resizable=0;points=[];" parent="sVcyXuBf6ooVwLhxNdBt-8" vertex="1" connectable="0">
          <mxGeometry x="-0.3304" y="-2" relative="1" as="geometry">
            <mxPoint x="40" y="-27" as="offset" />
          </mxGeometry>
        </mxCell>
        <mxCell id="sVcyXuBf6ooVwLhxNdBt-7" value="OLED" style="whiteSpace=wrap;html=1;rounded=1;fillColor=#e1d5e7;strokeColor=#9673a6;" parent="WIyWlLk6GJQsqaUBKTNV-1" vertex="1">
          <mxGeometry x="495" y="292" width="120" height="60" as="geometry" />
        </mxCell>
        <mxCell id="sVcyXuBf6ooVwLhxNdBt-11" style="edgeStyle=orthogonalEdgeStyle;rounded=0;orthogonalLoop=1;jettySize=auto;html=1;exitX=0.5;exitY=1;exitDx=0;exitDy=0;entryX=0.5;entryY=0;entryDx=0;entryDy=0;" parent="WIyWlLk6GJQsqaUBKTNV-1" source="sVcyXuBf6ooVwLhxNdBt-10" target="BNZY-GQQ6ccpOPCzlgzK-0" edge="1">
          <mxGeometry relative="1" as="geometry">
            <Array as="points">
              <mxPoint x="275" y="420" />
              <mxPoint x="415" y="420" />
            </Array>
          </mxGeometry>
        </mxCell>
        <mxCell id="sVcyXuBf6ooVwLhxNdBt-12" value="Dedicated periph." style="edgeLabel;html=1;align=center;verticalAlign=middle;resizable=0;points=[];" parent="sVcyXuBf6ooVwLhxNdBt-11" vertex="1" connectable="0">
          <mxGeometry x="-0.5786" relative="1" as="geometry">
            <mxPoint y="-26" as="offset" />
          </mxGeometry>
        </mxCell>
        <mxCell id="sVcyXuBf6ooVwLhxNdBt-10" value="Encoder" style="whiteSpace=wrap;html=1;rounded=1;fillColor=#e1d5e7;strokeColor=#9673a6;" parent="WIyWlLk6GJQsqaUBKTNV-1" vertex="1">
          <mxGeometry x="215" y="292" width="120" height="60" as="geometry" />
        </mxCell>
        <mxCell id="sVcyXuBf6ooVwLhxNdBt-15" style="edgeStyle=orthogonalEdgeStyle;rounded=0;orthogonalLoop=1;jettySize=auto;html=1;exitX=0.5;exitY=1;exitDx=0;exitDy=0;entryX=0.5;entryY=0;entryDx=0;entryDy=0;" parent="WIyWlLk6GJQsqaUBKTNV-1" source="sVcyXuBf6ooVwLhxNdBt-13" target="BNZY-GQQ6ccpOPCzlgzK-0" edge="1">
          <mxGeometry relative="1" as="geometry" />
        </mxCell>
        <mxCell id="sVcyXuBf6ooVwLhxNdBt-16" value="Dedicated periph." style="edgeLabel;html=1;align=center;verticalAlign=middle;resizable=0;points=[];" parent="sVcyXuBf6ooVwLhxNdBt-15" vertex="1" connectable="0">
          <mxGeometry x="-0.3997" relative="1" as="geometry">
            <mxPoint y="-16" as="offset" />
          </mxGeometry>
        </mxCell>
        <mxCell id="sVcyXuBf6ooVwLhxNdBt-13" value="Touch pads" style="whiteSpace=wrap;html=1;rounded=1;fillColor=#e1d5e7;strokeColor=#9673a6;" parent="WIyWlLk6GJQsqaUBKTNV-1" vertex="1">
          <mxGeometry x="355" y="292" width="120" height="60" as="geometry" />
        </mxCell>
        <mxCell id="sVcyXuBf6ooVwLhxNdBt-26" style="edgeStyle=orthogonalEdgeStyle;rounded=0;orthogonalLoop=1;jettySize=auto;html=1;exitX=0.5;exitY=0;exitDx=0;exitDy=0;entryX=0.5;entryY=1;entryDx=0;entryDy=0;startArrow=classic;startFill=1;" parent="WIyWlLk6GJQsqaUBKTNV-1" source="sVcyXuBf6ooVwLhxNdBt-17" target="BNZY-GQQ6ccpOPCzlgzK-0" edge="1">
          <mxGeometry relative="1" as="geometry">
            <Array as="points">
              <mxPoint x="198" y="835" />
              <mxPoint x="415" y="835" />
            </Array>
          </mxGeometry>
        </mxCell>
        <mxCell id="sVcyXuBf6ooVwLhxNdBt-27" value="SPI" style="edgeLabel;html=1;align=center;verticalAlign=middle;resizable=0;points=[];" parent="sVcyXuBf6ooVwLhxNdBt-26" vertex="1" connectable="0">
          <mxGeometry x="-0.7551" relative="1" as="geometry">
            <mxPoint x="-6" y="13" as="offset" />
          </mxGeometry>
        </mxCell>
        <mxCell id="sVcyXuBf6ooVwLhxNdBt-17" value="IO expander" style="whiteSpace=wrap;html=1;rounded=1;fillColor=#ffe6cc;strokeColor=#d79b00;" parent="WIyWlLk6GJQsqaUBKTNV-1" vertex="1">
          <mxGeometry x="137.5" y="882" width="120" height="60" as="geometry" />
        </mxCell>
        <mxCell id="sVcyXuBf6ooVwLhxNdBt-22" style="edgeStyle=orthogonalEdgeStyle;rounded=0;orthogonalLoop=1;jettySize=auto;html=1;exitX=0.5;exitY=0;exitDx=0;exitDy=0;entryX=0.5;entryY=1;entryDx=0;entryDy=0;startArrow=classic;startFill=1;" parent="WIyWlLk6GJQsqaUBKTNV-1" source="sVcyXuBf6ooVwLhxNdBt-19" target="BNZY-GQQ6ccpOPCzlgzK-0" edge="1">
          <mxGeometry relative="1" as="geometry">
            <Array as="points">
              <mxPoint x="626" y="835" />
              <mxPoint x="415" y="835" />
            </Array>
          </mxGeometry>
        </mxCell>
        <mxCell id="sVcyXuBf6ooVwLhxNdBt-23" value="SPI" style="edgeLabel;html=1;align=center;verticalAlign=middle;resizable=0;points=[];" parent="sVcyXuBf6ooVwLhxNdBt-22" vertex="1" connectable="0">
          <mxGeometry x="-0.6266" relative="1" as="geometry">
            <mxPoint x="33" y="12" as="offset" />
          </mxGeometry>
        </mxCell>
        <mxCell id="sVcyXuBf6ooVwLhxNdBt-19" value="Accelerometer" style="whiteSpace=wrap;html=1;rounded=1;fillColor=#ffe6cc;strokeColor=#d79b00;" parent="WIyWlLk6GJQsqaUBKTNV-1" vertex="1">
          <mxGeometry x="566.5" y="882" width="120" height="60" as="geometry" />
        </mxCell>
        <mxCell id="sVcyXuBf6ooVwLhxNdBt-28" style="edgeStyle=orthogonalEdgeStyle;rounded=0;orthogonalLoop=1;jettySize=auto;html=1;exitX=0;exitY=0.5;exitDx=0;exitDy=0;entryX=1;entryY=0.5;entryDx=0;entryDy=0;startArrow=classic;startFill=1;" parent="WIyWlLk6GJQsqaUBKTNV-1" source="sVcyXuBf6ooVwLhxNdBt-20" target="BNZY-GQQ6ccpOPCzlgzK-0" edge="1">
          <mxGeometry relative="1" as="geometry">
            <Array as="points">
              <mxPoint x="521" y="658" />
              <mxPoint x="521" y="605" />
            </Array>
          </mxGeometry>
        </mxCell>
        <mxCell id="sVcyXuBf6ooVwLhxNdBt-29" value="SPI" style="edgeLabel;html=1;align=center;verticalAlign=middle;resizable=0;points=[];" parent="sVcyXuBf6ooVwLhxNdBt-28" vertex="1" connectable="0">
          <mxGeometry x="-0.3542" y="-3" relative="1" as="geometry">
            <mxPoint x="-10" y="3" as="offset" />
          </mxGeometry>
        </mxCell>
        <mxCell id="sVcyXuBf6ooVwLhxNdBt-20" value="Shift reg w leds" style="whiteSpace=wrap;html=1;rounded=1;fillColor=#fff2cc;strokeColor=#d6b656;" parent="WIyWlLk6GJQsqaUBKTNV-1" vertex="1">
          <mxGeometry x="644" y="628" width="120" height="60" as="geometry" />
        </mxCell>
        <mxCell id="sVcyXuBf6ooVwLhxNdBt-24" style="edgeStyle=orthogonalEdgeStyle;rounded=0;orthogonalLoop=1;jettySize=auto;html=1;exitX=0.5;exitY=0;exitDx=0;exitDy=0;entryX=0.5;entryY=1;entryDx=0;entryDy=0;startArrow=classic;startFill=1;" parent="WIyWlLk6GJQsqaUBKTNV-1" source="sVcyXuBf6ooVwLhxNdBt-21" target="BNZY-GQQ6ccpOPCzlgzK-0" edge="1">
          <mxGeometry relative="1" as="geometry">
            <Array as="points">
              <mxPoint x="342" y="835" />
              <mxPoint x="415" y="835" />
            </Array>
          </mxGeometry>
        </mxCell>
        <mxCell id="sVcyXuBf6ooVwLhxNdBt-25" value="UART" style="edgeLabel;html=1;align=center;verticalAlign=middle;resizable=0;points=[];" parent="sVcyXuBf6ooVwLhxNdBt-24" vertex="1" connectable="0">
          <mxGeometry x="-0.6408" y="1" relative="1" as="geometry">
            <mxPoint x="-5" y="15" as="offset" />
          </mxGeometry>
        </mxCell>
        <mxCell id="sVcyXuBf6ooVwLhxNdBt-21" value="HC05/GPS" style="whiteSpace=wrap;html=1;rounded=1;fillColor=#ffe6cc;strokeColor=#d79b00;" parent="WIyWlLk6GJQsqaUBKTNV-1" vertex="1">
          <mxGeometry x="281.5" y="882" width="120" height="60" as="geometry" />
        </mxCell>
        <mxCell id="sVcyXuBf6ooVwLhxNdBt-30" value="Other" style="rounded=0;whiteSpace=wrap;html=1;verticalAlign=top;" parent="WIyWlLk6GJQsqaUBKTNV-1" vertex="1">
          <mxGeometry x="55" y="548" width="150" height="261" as="geometry" />
        </mxCell>
        <mxCell id="sVcyXuBf6ooVwLhxNdBt-36" style="edgeStyle=orthogonalEdgeStyle;rounded=0;orthogonalLoop=1;jettySize=auto;html=1;exitX=1;exitY=0.5;exitDx=0;exitDy=0;entryX=0;entryY=0.5;entryDx=0;entryDy=0;startArrow=classic;startFill=1;" parent="WIyWlLk6GJQsqaUBKTNV-1" source="sVcyXuBf6ooVwLhxNdBt-31" target="BNZY-GQQ6ccpOPCzlgzK-0" edge="1">
          <mxGeometry relative="1" as="geometry">
            <Array as="points">
              <mxPoint x="298" y="605" />
              <mxPoint x="298" y="605" />
            </Array>
          </mxGeometry>
        </mxCell>
        <mxCell id="sVcyXuBf6ooVwLhxNdBt-39" value="SPI" style="edgeLabel;html=1;align=center;verticalAlign=middle;resizable=0;points=[];" parent="sVcyXuBf6ooVwLhxNdBt-36" vertex="1" connectable="0">
          <mxGeometry x="-0.5725" y="-1" relative="1" as="geometry">
            <mxPoint x="1" as="offset" />
          </mxGeometry>
        </mxCell>
        <mxCell id="sVcyXuBf6ooVwLhxNdBt-31" value="&lt;strike&gt;EEPROM&lt;/strike&gt;" style="whiteSpace=wrap;html=1;rounded=1;fillColor=#dae8fc;strokeColor=#6c8ebf;" parent="WIyWlLk6GJQsqaUBKTNV-1" vertex="1">
          <mxGeometry x="68" y="575" width="120" height="60" as="geometry" />
        </mxCell>
        <mxCell id="sVcyXuBf6ooVwLhxNdBt-37" style="edgeStyle=orthogonalEdgeStyle;rounded=0;orthogonalLoop=1;jettySize=auto;html=1;exitX=1;exitY=0.5;exitDx=0;exitDy=0;entryX=0;entryY=0.5;entryDx=0;entryDy=0;startArrow=classic;startFill=1;" parent="WIyWlLk6GJQsqaUBKTNV-1" source="sVcyXuBf6ooVwLhxNdBt-32" target="BNZY-GQQ6ccpOPCzlgzK-0" edge="1">
          <mxGeometry relative="1" as="geometry">
            <mxPoint x="296.26317074424355" y="610.2105263157896" as="targetPoint" />
            <Array as="points">
              <mxPoint x="263" y="686" />
              <mxPoint x="263" y="605" />
            </Array>
          </mxGeometry>
        </mxCell>
        <mxCell id="sVcyXuBf6ooVwLhxNdBt-40" value="I2C" style="edgeLabel;html=1;align=center;verticalAlign=middle;resizable=0;points=[];" parent="sVcyXuBf6ooVwLhxNdBt-37" vertex="1" connectable="0">
          <mxGeometry x="-0.7133" y="1" relative="1" as="geometry">
            <mxPoint as="offset" />
          </mxGeometry>
        </mxCell>
        <mxCell id="sVcyXuBf6ooVwLhxNdBt-32" value="&lt;strike&gt;RTC&lt;/strike&gt;" style="whiteSpace=wrap;html=1;rounded=1;fillColor=#dae8fc;strokeColor=#6c8ebf;" parent="WIyWlLk6GJQsqaUBKTNV-1" vertex="1">
          <mxGeometry x="70" y="656" width="120" height="60" as="geometry" />
        </mxCell>
        <mxCell id="sVcyXuBf6ooVwLhxNdBt-33" value="SPI" style="edgeLabel;html=1;align=center;verticalAlign=middle;resizable=0;points=[];" parent="WIyWlLk6GJQsqaUBKTNV-1" vertex="1" connectable="0">
          <mxGeometry x="89.5520282023092" y="790.4444650905532" as="geometry" />
        </mxCell>
        <mxCell id="sVcyXuBf6ooVwLhxNdBt-38" style="edgeStyle=orthogonalEdgeStyle;rounded=0;orthogonalLoop=1;jettySize=auto;html=1;exitX=1;exitY=0.5;exitDx=0;exitDy=0;entryX=0;entryY=0.5;entryDx=0;entryDy=0;startArrow=classic;startFill=1;" parent="WIyWlLk6GJQsqaUBKTNV-1" source="sVcyXuBf6ooVwLhxNdBt-34" target="BNZY-GQQ6ccpOPCzlgzK-0" edge="1">
          <mxGeometry relative="1" as="geometry">
            <Array as="points">
              <mxPoint x="263" y="766" />
              <mxPoint x="263" y="605" />
            </Array>
          </mxGeometry>
        </mxCell>
        <mxCell id="sVcyXuBf6ooVwLhxNdBt-41" value="GPIO" style="edgeLabel;html=1;align=center;verticalAlign=middle;resizable=0;points=[];" parent="sVcyXuBf6ooVwLhxNdBt-38" vertex="1" connectable="0">
          <mxGeometry x="-0.735" y="-2" relative="1" as="geometry">
            <mxPoint x="-6" y="-2" as="offset" />
          </mxGeometry>
        </mxCell>
        <mxCell id="sVcyXuBf6ooVwLhxNdBt-34" value="GPIO" style="whiteSpace=wrap;html=1;rounded=1;fillColor=#dae8fc;strokeColor=#6c8ebf;" parent="WIyWlLk6GJQsqaUBKTNV-1" vertex="1">
          <mxGeometry x="70" y="736" width="120" height="60" as="geometry" />
        </mxCell>
      </root>
    </mxGraphModel>
  </diagram>
</mxfile>
